<svg xmlns="http://www.w3.org/2000/svg" aria-hidden="true" style="position:absolute;width:0;height:0;overflow:hidden">
  <defs>
      <symbol id="icon-empresa6" viewBox="0 0 64 32">
        <path d="M32.257 16.601a1.774 1.774 0 0 1-.365-1.201v-1.741c0-.534.121-.939.363-1.217s.658-.416 1.247-.414c.554 0 .947.118 1.179.354.254.301.377.67.349 1.041v.409h-.991v-.414a2.05 2.05 0 0 0-.029-.406.389.389 0 0 0-.142-.241.573.573 0 0 0-.359-.094.607.607 0 0 0-.377.099.463.463 0 0 0-.164.266 2.073 2.073 0 0 0-.039.43v2.113c-.016.204.028.408.127.593.049.063.118.113.198.144s.168.043.256.033a.536.536 0 0 0 .351-.096.422.422 0 0 0 .148-.257c.023-.14.033-.282.031-.423v-.429h.991v.391c.028.387-.093.772-.343 1.094-.228.259-.615.388-1.186.388s-1.001-.138-1.245-.425zM36.382 16.619c-.25-.271-.375-.666-.375-1.188V13.6c0-.517.125-.909.375-1.174s.669-.398 1.255-.397c.583 0 .999.132 1.249.397.25.266.377.657.377 1.174v1.831c0 .517-.127.914-.382 1.186s-.669.409-1.245.409c-.576 0-1.003-.138-1.255-.407zm1.716-.44c.09-.17.13-.356.119-.542v-2.242a1 1 0 0 0-.117-.531c-.05-.064-.12-.115-.202-.146s-.172-.042-.261-.031c-.089-.011-.18 0-.262.031s-.153.082-.204.146a.975.975 0 0 0-.119.531v2.253a.997.997 0 0 0 .119.542c.058.057.129.103.209.134a.709.709 0 0 0 .51 0 .63.63 0 0 0 .209-.134v-.011zM40.455 12.082h1.067l.802 3.378.82-3.378h1.038l.105 4.877h-.767l-.082-3.389-.792 3.389h-.615l-.82-3.402-.076 3.402h-.775l.096-4.877zM45.482 12.082h1.661c.957 0 1.436.462 1.436 1.385 0 .884-.504 1.326-1.512 1.325h-.566v2.167h-1.026l.006-4.877zm1.42 2.084c.101.011.204.003.302-.024s.187-.071.262-.131a.793.793 0 0 0 .148-.551 1.542 1.542 0 0 0-.049-.443c-.015-.048-.04-.094-.075-.134s-.079-.073-.13-.098a1.058 1.058 0 0 0-.457-.078h-.398v1.457h.398zM50.059 12.082h1.101l1.13 4.877h-.956l-.224-1.124h-.983l-.23 1.124h-.97l1.13-4.877zM51 15.269l-.384-2.047-.384 2.047h.767zM53.203 12.082h.718l1.374 2.782v-2.782h.851v4.877h-.683l-1.382-2.904v2.904h-.88l.002-4.877zM58.14 15.099l-1.143-3.01h.962l.697 1.934.654-1.934h.941l-1.128 3.01v1.859h-.984v-1.859zM33.84 19.09v.255h-.837v1.982h-.351v-1.982h-.841v-.255h2.029zM36.464 21.327h-.271a.119.119 0 0 1-.076-.021.122.122 0 0 1-.045-.051l-.242-.531h-1.161l-.242.531a.15.15 0 0 1-.037.06.123.123 0 0 1-.076.021h-.271l1.026-2.236h.357l1.038 2.228zm-1.699-.83h.968l-.41-.91a1.61 1.61 0 0 1-.076-.211l-.039.119-.037.094-.406.908zM38.232 21.108a1.122 1.122 0 0 0 .357-.027 1.246 1.246 0 0 0 .285-.096v-.503h-.41a.082.082 0 0 1-.056-.018c-.007-.005-.012-.011-.016-.018s-.005-.015-.005-.022v-.172h.796v.857a1.528 1.528 0 0 1-.433.182c-.084.021-.17.037-.256.046-.099.01-.199.014-.299.014a1.582 1.582 0 0 1-.517-.083 1.249 1.249 0 0 1-.41-.234 1.09 1.09 0 0 1-.265-.354 1.101 1.101 0 0 1-.094-.464 1.17 1.17 0 0 1 .092-.468c.059-.133.149-.253.265-.354.117-.101.257-.18.41-.232.176-.057.362-.085.55-.083.096 0 .191.006.285.019.083.012.165.031.244.057a1.172 1.172 0 0 1 .383.205l-.098.138a.094.094 0 0 1-.08.043.14.14 0 0 1-.064-.018 1.268 1.268 0 0 1-.101-.053.876.876 0 0 0-.137-.06 1.312 1.312 0 0 0-.189-.05 1.514 1.514 0 0 0-.261-.019c-.135-.001-.27.02-.396.062a.778.778 0 0 0-.493.455 1.043 1.043 0 0 0 0 .746.872.872 0 0 0 .504.459c.13.039.269.054.406.044zM41.501 21.072h1.12v.255h-1.462V19.09h.351l-.008 1.982zM43.786 21.327h-.351V19.09h.351v2.237zM45.091 19.101c.021.01.039.024.053.041l1.499 1.686a.534.534 0 0 1 0-.08v-1.667h.306v2.246h-.176a.164.164 0 0 1-.076-.012.194.194 0 0 1-.055-.043l-1.497-1.684v1.739h-.293V19.09h.183c.02 0 .039.004.057.011zM49.531 19.09v.246h-1.243v.738h1.007v.237h-1.007v.763h1.243v.246h-1.604v-2.231h1.604zM12.777 5.278l15.574 3.818v13.378l-15.574-3.816V5.278zm-.999-1.14v15.17l17.57 4.308V8.447l-17.57-4.31z"/>
        <path d="M21.195 30.659 3.623 26.347V11.178l17.572 4.31v15.171z"/>
        <path d="m12.069 5.107 15.371 3.77-6.537 5.645L5.53 10.75l6.539-5.643zm-.291-.969-8.155 7.041 17.572 4.31 8.153-7.041-17.57-4.31zM22.183 29.806l7.165-6.187-7.165-1.758v7.945z"/>
      </symbol>
      <symbol id="icon-empresa5" viewBox="0 0 64 32">
        <path d="M16.155 27.062a.863.863 0 0 1 .221.59c.008.14-.019.279-.079.408s-.15.244-.264.337c-.286.198-.64.294-.997.272h-1.753v-3.738H15c.339-.021.675.067.951.248.111.085.199.192.256.314s.084.253.077.386a.823.823 0 0 1-.199.572.945.945 0 0 1-.523.292c.233.039.442.152.592.32zm-2.056-.564h.734a.749.749 0 0 0 .467-.124.418.418 0 0 0 .157-.366c.005-.068-.006-.135-.033-.199s-.069-.12-.123-.167a.756.756 0 0 0-.481-.126h-.722v.981zm1.272 1.434c.059-.047.105-.105.135-.171s.043-.137.038-.208c.004-.072-.009-.144-.04-.211s-.078-.126-.138-.173a.807.807 0 0 0-.499-.135h-.77v1.028h.78a.824.824 0 0 0 .493-.13zM19.665 28.67l-.955-1.461h-.359v1.461h-.822v-3.738h1.556a1.63 1.63 0 0 1 1.083.318c.217.203.349.47.37.754s-.069.565-.254.793a1.297 1.297 0 0 1-.742.38l1.017 1.494h-.894zm-1.314-1.971h.672c.467 0 .7-.189.7-.566.005-.077-.008-.154-.038-.227s-.075-.138-.134-.194a.777.777 0 0 0-.529-.152h-.68l.008 1.138zM24.157 27.917H22.52l-.289.752h-.862l1.504-3.696h.931l1.498 3.696h-.862l-.283-.752zm-.219-.566-.598-1.578-.598 1.578h1.197zM29.78 28.669h-.816l-1.829-2.542v2.542h-.814v-3.738h.814l1.829 2.557v-2.557h.816v3.738zM34.435 27.775a1.702 1.702 0 0 1-.738.659 2.6 2.6 0 0 1-1.147.236h-1.452v-3.738h1.452c.397-.009.791.07 1.147.23.312.144.57.371.738.652a2.024 2.024 0 0 1 0 1.962zm-.934-.09c.233-.248.361-.565.361-.892s-.128-.644-.361-.892a1.503 1.503 0 0 0-1.021-.318h-.566v2.42h.566c.373.021.74-.093 1.021-.318zM24.668 4.138s10.529 3.64 10.306 8.906v8.908s-10.521-3.641-10.302-8.908l-.004-8.906zM44.353 19.867a15.272 15.272 0 0 1 6.69-2.257v-2.789c-2.767.976-5.113 2.747-6.69 5.046z"/>
        <path d="M43.159 20.707c1.628-3.001 4.449-5.316 7.884-6.47V6.202s-14.995 5.185-14.678 12.685V31.57s.668-.232 1.719-.667c0-.405 0-.814.048-1.225.31-3.482 2.118-6.709 5.026-8.97z"/>
        <path d="M41.733 25.419c.079-.88.255-1.75.525-2.597-1.811 1.953-2.907 4.377-3.135 6.93-.022.241-.034.482-.04.73a44.638 44.638 0 0 0 2.884-1.392 12.024 12.024 0 0 1-.233-3.672zM42.329 25.465a11.5 11.5 0 0 0 .185 3.326c4.097-2.244 8.7-5.712 8.523-9.904v-.365c-2.927.3-5.665 1.471-7.795 3.335a11.64 11.64 0 0 0-.913 3.609z"/>
      </symbol>
      <symbol id="icon-empresa4" viewBox="0 0 64 32">
        <path d="M14.579 12.794h-.002c-1.448 0-2.622 1.043-2.622 2.33v.002c0 1.287 1.174 2.33 2.622 2.33h.002c1.448 0 2.622-1.043 2.622-2.33v-.002c0-1.287-1.174-2.33-2.622-2.33zM33.929 12.049c-.004-1.787-.805-3.5-2.226-4.764s-3.349-1.976-5.36-1.98c-2.012.003-3.94.715-5.362 1.979s-2.224 2.977-2.228 4.765v9.855s15.175-1.502 15.177-9.854v-.002zM6.641 25.139c.004 1.244.561 2.435 1.55 3.315s2.33 1.375 3.729 1.379c1.399-.004 2.739-.499 3.729-1.378s1.547-2.07 1.551-3.314v-6.857S6.641 19.33 6.641 25.14zm5.28 1.229c-.273 0-.541-.072-.768-.207s-.405-.327-.509-.551c-.105-.225-.132-.472-.079-.71s.185-.457.378-.629.44-.289.708-.336.546-.023.799.07.469.25.62.453.233.44.233.683c.001.162-.035.322-.104.472s-.171.286-.299.4c-.128.115-.281.205-.449.268s-.348.094-.53.094v-.005zM21.573 24.168v2.575h-.531v-2.575h.531zm1.026 1.1v.414h-1.171v-.414h1.171zm.124-1.1v.416h-1.295v-.416h1.295zm2.423 1.228v.122c0 .196-.026.371-.08.527s-.128.288-.225.398a.968.968 0 0 1-.347.249 1.1 1.1 0 0 1-.444.087c-.162 0-.31-.029-.444-.087a1.008 1.008 0 0 1-.347-.249 1.16 1.16 0 0 1-.228-.398 1.63 1.63 0 0 1-.08-.527v-.122c0-.197.027-.373.08-.527.053-.156.128-.288.225-.398a.979.979 0 0 1 .347-.251c.134-.058.282-.087.444-.087a1.1 1.1 0 0 1 .444.087c.134.058.25.142.347.251.098.11.173.242.226.398.054.154.081.33.081.527zm-.536.122v-.126c0-.137-.012-.257-.037-.361s-.061-.191-.11-.262a.462.462 0 0 0-.177-.159c-.07-.037-.149-.055-.239-.055s-.169.018-.239.055a.472.472 0 0 0-.175.159c-.047.071-.083.158-.108.262s-.037.224-.037.361v.126c0 .136.012.256.037.361a.795.795 0 0 0 .11.264.485.485 0 0 0 .416.216.472.472 0 0 0 .414-.216.839.839 0 0 0 .108-.264c.025-.105.037-.225.037-.361zm2.259.552a.347.347 0 0 0-.021-.124.24.24 0 0 0-.074-.103c-.037-.032-.088-.063-.154-.094s-.152-.063-.256-.096a3.34 3.34 0 0 1-.333-.127 1.37 1.37 0 0 1-.276-.164.74.74 0 0 1-.187-.221.608.608 0 0 1-.067-.292c0-.107.024-.205.071-.292a.667.667 0 0 1 .198-.226.929.929 0 0 1 .301-.147c.117-.034.245-.051.384-.051.19 0 .355.034.497.103s.251.162.329.281a.722.722 0 0 1 .119.409h-.527a.398.398 0 0 0-.048-.198.323.323 0 0 0-.142-.136.508.508 0 0 0-.237-.049.553.553 0 0 0-.23.042.31.31 0 0 0-.138.111.272.272 0 0 0-.046.156.23.23 0 0 0 .032.119c.022.035.055.068.099.099s.097.06.161.087c.064.027.137.054.221.08.14.042.264.09.37.143.107.053.197.113.269.179s.126.141.163.225a.7.7 0 0 1 .055.285.618.618 0 0 1-.254.526.877.877 0 0 1-.295.14 1.42 1.42 0 0 1-.384.048c-.127 0-.253-.016-.377-.049a1.13 1.13 0 0 1-.338-.154.744.744 0 0 1-.331-.639h.532c0 .08.012.148.037.203s.06.1.104.134c.046.034.1.059.163.074a.91.91 0 0 0 .209.023.563.563 0 0 0 .226-.039.285.285 0 0 0 .133-.108.287.287 0 0 0 .044-.156zm2.043-1.902v2.575h-.529v-2.575h.529zm.792 0v.416h-2.101v-.416h2.101zm2.031 2.162v.414h-1.371v-.414h1.371zm-1.197-2.162v2.575h-.531v-2.575h.531zm1.018 1.049v.403h-1.192v-.403h1.192zm.177-1.049v.416h-1.369v-.416h1.369zm.312 0h.96c.197 0 .366.029.508.088.143.059.252.146.329.262s.115.258.115.426a.82.82 0 0 1-.071.355.663.663 0 0 1-.196.246 1.022 1.022 0 0 1-.295.156l-.168.088h-.835l-.004-.414h.621c.093 0 .17-.016.232-.049s.107-.079.138-.138a.422.422 0 0 0 .048-.205c0-.083-.015-.154-.046-.214s-.077-.106-.14-.138a.515.515 0 0 0-.235-.048h-.43v2.16h-.531v-2.575zm1.439 2.576-.587-1.148.561-.004.594 1.127v.025h-.568zm2.786-.919h-.656v-.414h.656a.555.555 0 0 0 .248-.049c.064-.034.11-.081.14-.142s.044-.128.044-.203c0-.077-.015-.148-.044-.214s-.076-.119-.14-.159-.146-.06-.248-.06h-.472v2.16h-.531v-2.575h1.003c.202 0 .374.037.518.11.145.072.256.172.333.299s.115.273.115.437c0 .166-.038.31-.115.432s-.187.215-.333.281a1.237 1.237 0 0 1-.518.099zm3.061.505v.414H37.96v-.414h1.371zm-1.198-2.162v2.575h-.531v-2.575h.531zm1.019 1.049v.403H37.96v-.403h1.192zm.177-1.049v.416H37.96v-.416h1.369zm1.498 0v2.575h-.529v-2.575h.529zm.793 0v.416h-2.101v-.416h2.101zm2.03 2.162v.414h-1.371v-.414h1.371zm-1.197-2.162v2.575h-.531v-2.575h.531zm1.019 1.049v.403H42.28v-.403h1.192zm.176-1.049v.416h-1.369v-.416h1.369zm.312 0h.96c.197 0 .366.029.508.088.143.059.252.146.329.262s.115.258.115.426a.82.82 0 0 1-.071.355.663.663 0 0 1-.196.246 1.022 1.022 0 0 1-.295.156l-.168.088h-.835l-.004-.414h.621c.093 0 .17-.016.232-.049s.107-.079.138-.138a.422.422 0 0 0 .048-.205c0-.083-.015-.154-.046-.214s-.077-.106-.14-.138a.515.515 0 0 0-.235-.048h-.43v2.16h-.531v-2.575zm1.44 2.576-.587-1.148.561-.004.594 1.127v.025H45.4zm2.221-.674a.347.347 0 0 0-.021-.124.24.24 0 0 0-.074-.103c-.037-.032-.088-.063-.154-.094s-.152-.063-.256-.096a3.34 3.34 0 0 1-.333-.127 1.37 1.37 0 0 1-.276-.164.74.74 0 0 1-.187-.221.608.608 0 0 1-.067-.292c0-.107.024-.205.071-.292a.667.667 0 0 1 .198-.226.929.929 0 0 1 .301-.147c.117-.034.245-.051.384-.051.19 0 .355.034.497.103s.251.162.329.281a.722.722 0 0 1 .119.409h-.527a.398.398 0 0 0-.048-.198.323.323 0 0 0-.142-.136.508.508 0 0 0-.237-.049.553.553 0 0 0-.23.042.31.31 0 0 0-.138.111.272.272 0 0 0-.046.156.23.23 0 0 0 .032.119c.022.035.055.068.099.099s.097.06.161.087c.064.027.137.054.221.08.14.042.264.09.37.143.107.053.197.113.269.179s.126.141.163.225a.7.7 0 0 1 .055.285.618.618 0 0 1-.254.526.877.877 0 0 1-.295.14 1.42 1.42 0 0 1-.384.048c-.127 0-.253-.016-.377-.049a1.13 1.13 0 0 1-.338-.154.744.744 0 0 1-.331-.639h.532c0 .08.012.148.037.203s.06.1.104.134c.046.034.1.059.163.074a.91.91 0 0 0 .209.023.563.563 0 0 0 .226-.039.285.285 0 0 0 .133-.108.287.287 0 0 0 .044-.156z"/>
      </symbol>
      <symbol id="icon-empresa3" viewBox="0 0 64 32">
        <path d="M21.981 29.699c.01 0 .019.002.028.006s.017.008.023.014l.132.126a1.093 1.093 0 0 1-.37.239c-.166.061-.345.09-.525.086a1.399 1.399 0 0 1-.494-.08 1.075 1.075 0 0 1-.372-.226 1.002 1.002 0 0 1-.24-.349 1.154 1.154 0 0 1-.084-.448 1.04 1.04 0 0 1 .345-.798 1.19 1.19 0 0 1 .395-.227c.162-.055.335-.082.509-.08.162-.003.322.021.472.073.13.049.25.117.354.202l-.11.134a.108.108 0 0 1-.028.024.075.075 0 0 1-.044.01.112.112 0 0 1-.048-.014l-.059-.036-.082-.046a.87.87 0 0 0-.26-.08 1.168 1.168 0 0 0-.196-.014 1.071 1.071 0 0 0-.365.06.837.837 0 0 0-.286.169.78.78 0 0 0-.186.269.907.907 0 0 0-.067.355.928.928 0 0 0 .067.36.777.777 0 0 0 .456.434.97.97 0 0 0 .339.057c.067.001.134-.003.201-.011a.796.796 0 0 0 .435-.185.105.105 0 0 1 .063-.023zM25.784 29.066c.002.152-.028.303-.089.445-.054.129-.138.247-.248.345s-.242.176-.389.227a1.6 1.6 0 0 1-1.001 0 1.17 1.17 0 0 1-.387-.227 1 1 0 0 1-.25-.349 1.157 1.157 0 0 1 0-.891 1.04 1.04 0 0 1 .25-.35c.11-.095.242-.17.387-.219a1.573 1.573 0 0 1 1.001 0c.146.052.279.129.388.227a1.031 1.031 0 0 1 .338.793zm-.346 0a.943.943 0 0 0-.063-.358.731.731 0 0 0-.454-.436 1.162 1.162 0 0 0-.728 0 .778.778 0 0 0-.278.169.724.724 0 0 0-.178.267 1.046 1.046 0 0 0 0 .715.724.724 0 0 0 .456.434c.235.076.493.076.728 0a.774.774 0 0 0 .278-.167.748.748 0 0 0 .176-.267.956.956 0 0 0 .063-.358zM28.378 29.441l.035.08a2.03 2.03 0 0 1 .081-.159l.841-1.329c.016-.023.031-.037.048-.041a.228.228 0 0 1 .069-.007h.249v2.161h-.295V28.49a.457.457 0 0 1 0-.074l-.846 1.347c-.011.02-.028.037-.049.049s-.047.018-.072.018h-.048c-.026 0-.051-.006-.072-.018s-.039-.029-.049-.049l-.871-1.356V30.142h-.285v-2.157h.249a.228.228 0 0 1 .069.007c.02.009.037.023.046.041l.859 1.33c.017.025.031.05.043.077zM31.544 29.334v.809h-.329v-2.158h.734c.139-.002.277.014.41.047a.82.82 0 0 1 .29.134c.073.058.13.131.165.212a.647.647 0 0 1 .056.276.594.594 0 0 1-.239.492.833.833 0 0 1-.291.143 1.39 1.39 0 0 1-.397.05l-.398-.006zm0-.232h.398a.906.906 0 0 0 .255-.033.56.56 0 0 0 .184-.093.412.412 0 0 0 .151-.325c.004-.06-.007-.12-.033-.176s-.065-.106-.115-.147a.71.71 0 0 0-.443-.116h-.398v.89zM35.969 30.146h-.26a.119.119 0 0 1-.072-.02.137.137 0 0 1-.043-.05l-.224-.522h-1.124l-.232.522a.12.12 0 0 1-.115.07h-.26l.988-2.161h.342l1.001 2.161zm-1.63-.802h.928l-.392-.88a1.372 1.372 0 0 1-.074-.203l-.038.113a1.634 1.634 0 0 1-.036.092l-.388.878zM37.391 27.995c.02.009.037.023.049.039l1.44 1.629v-1.678h.295v2.161h-.165a.159.159 0 0 1-.068-.013.19.19 0 0 1-.053-.04l-1.439-1.628a.457.457 0 0 1 0 .074v1.606h-.295v-2.161h.175c.02 0 .041.003.059.01zM41.602 29.287v.858h-.329v-.858l-.91-1.302h.295a.119.119 0 0 1 .071.019.17.17 0 0 1 .044.049l.57.84a.813.813 0 0 1 .1.192l.043-.093a.809.809 0 0 1 .056-.099l.561-.845a.233.233 0 0 1 .043-.046.11.11 0 0 1 .071-.021h.298l-.912 1.307zM28.215 24.358c.143.016.288.029.435.04 2.221-.863 4.1-2.276 5.402-4.062s1.969-3.866 1.918-5.98l-2.448-2.127c.498 2.25.265 4.577-.672 6.719s-2.542 4.015-4.635 5.41z"/>
        <path d="m27.341 24.259.066.011c2.236-1.39 3.941-3.331 4.895-5.571s1.111-4.678.452-6.998l-3.487-3.029c1.41 2.49 1.978 5.277 1.637 8.036s-1.576 5.378-3.563 7.551zM39.166 16.854c-.592 2.322-2.031 4.417-4.102 5.973-.605.457-1.257.864-1.949 1.216 1.687-.431 3.237-1.192 4.531-2.226s2.298-2.312 2.934-3.735l-1.414-1.227z"/>
        <path d="m38.611 16.512-2.013-1.749c-.038 1.994-.691 3.943-1.89 5.644s-2.9 3.092-4.927 4.029h.01c.452 0 .903-.024 1.352-.07 1.894-.672 3.568-1.741 4.871-3.111s2.196-3 2.598-4.743zM27.632 7.395l-2.402-2.09c-2.147.721-3.994 1.988-5.298 3.636s-2.006 3.599-2.013 5.599c.008 2.21.864 4.354 2.433 6.094s3.76 2.975 6.228 3.511c2.203-2.332 3.493-5.213 3.682-8.225s-.732-5.998-2.63-8.525zM44.16 16.19c-.009-2.622-1.211-5.134-3.345-6.988s-5.025-2.899-8.043-2.906a12.802 12.802 0 0 0-4.078.659l14.705 12.777a8.67 8.67 0 0 0 .761-3.541z"/>
      </symbol>
      <symbol id="icon-empresa2" viewBox="0 0 64 32">
        <path d="M30.257 3.636h-.082c-.127-.008-.254-.011-.38-.014h-.275c-.24 0-.484.006-.727.018a.505.505 0 0 0-.055 0 17.08 17.08 0 0 0-6.349 1.62l-.261.126v13.368l.611-.207c.536-.184 1.107-.35 1.698-.504a20.731 20.731 0 0 1 4.888-.649v1.756c-.218.002-.431.008-.643.018h-.05c-1.269.07-2.528.263-3.76.577a19.11 19.11 0 0 0-4.48 1.746V4.346a17.968 17.968 0 0 1 4.7-1.912 17.94 17.94 0 0 1 4.429-.571h.258c.309.008.609.022.892.043.744.052 1.483.17 2.207.352v1.729a13.54 13.54 0 0 0-2.182-.326 5.148 5.148 0 0 0-.437-.025zM33.3 5.403c.383.029.781.043 1.182.043a19.006 19.006 0 0 0 4.657-.597 19.187 19.187 0 0 0 4.478-1.747v16.84c-1.47.856-3.053 1.5-4.701 1.912a18.089 18.089 0 0 1-4.429.57 13.539 13.539 0 0 1-3.36-.396V5.079a13.76 13.76 0 0 0 2.174.325zm8.57.13-.611.206c-.562.189-1.129.358-1.698.508a20.693 20.693 0 0 1-5.075.651c-.399 0-.765-.011-1.12-.034l-.487-.032v13.752l.418.037c.388.034.788.051 1.191.051a16.284 16.284 0 0 0 3.997-.517 16.81 16.81 0 0 0 3.123-1.122l.261-.126V5.534zM21.577 27.351a.9.9 0 0 0-.68-.275.994.994 0 0 0-.392.074.888.888 0 0 0-.502.508.984.984 0 0 0-.07.379v2.291c-.005.161.025.322.09.47a.922.922 0 0 0 .229.307.804.804 0 0 0 .315.163c.111.031.226.047.342.048a.962.962 0 0 0 .948-.964v-.256h-.599v.204a.525.525 0 0 1-.035.204.368.368 0 0 1-.087.129.41.41 0 0 1-.25.087.307.307 0 0 1-.281-.122.543.543 0 0 1-.079-.307v-2.136a.723.723 0 0 1 .073-.342.303.303 0 0 1 .293-.138.317.317 0 0 1 .267.129.485.485 0 0 1 .099.307v.198h.593v-.233a1.1 1.1 0 0 0-.073-.401.928.928 0 0 0-.2-.322zM25.134 27.324a1.07 1.07 0 0 0-.681-.252 1.058 1.058 0 0 0-.357.064.947.947 0 0 0-.548.508c-.06.14-.09.291-.087.444v2.197c-.004.155.026.308.087.45a.886.886 0 0 0 .232.307.928.928 0 0 0 .316.193 1.038 1.038 0 0 0 .714 0c.119-.043.229-.109.324-.193a.938.938 0 0 0 .226-.307c.061-.142.091-.295.087-.45v-2.197a1.076 1.076 0 0 0-.087-.444.99.99 0 0 0-.226-.321zm-.279 2.962a.387.387 0 0 1-.119.317.441.441 0 0 1-.564 0 .389.389 0 0 1-.119-.317v-2.197a.387.387 0 0 1 .119-.317.441.441 0 0 1 .564 0 .389.389 0 0 1 .119.317v2.197zM29.807 31.267v-4.159h-.576l-.756 2.202h-.011l-.762-2.202h-.57v4.159h.594v-2.53h.011l.582 1.789h.296l.587-1.789h.011v2.53h.594zM33.182 27.4a.82.82 0 0 0-.336-.227 1.314 1.314 0 0 0-.431-.064h-.883v4.159h.593v-1.624h.305a1.09 1.09 0 0 0 .535-.114.863.863 0 0 0 .325-.318.989.989 0 0 0 .136-.362 3 3 0 0 0 .032-.473c.006-.2-.014-.399-.058-.594a.896.896 0 0 0-.218-.382zm-.305 1.268a.523.523 0 0 1-.055.216.333.333 0 0 1-.153.146.613.613 0 0 1-.28.052h-.27v-1.414h.305a.558.558 0 0 1 .267.052c.061.035.11.089.139.154.032.073.05.152.052.232v.276c0 .096.006.197 0 .286h-.006zM35.99 27.108h-.486l-.916 4.159h.593l.174-.894h.808l.174.894h.593l-.939-4.159zm-.547 2.699.292-1.508h.011l.29 1.508h-.593zM39.819 29.614h-.011l-.895-2.506h-.57v4.159h.593v-2.501h.012l.906 2.501h.557v-4.159h-.593v2.506zM43.44 27.108l-.477 1.654h-.012l-.477-1.654h-.628l.814 2.401v1.758h.593v-1.758l.814-2.401h-.628z"/>
      </symbol>
      <symbol id="icon-empresa1" viewBox="0 0 64 32">
        <path d="m22.943 4.279 4.231 4.005-7.854-.005v19.434h20.528v-7.43l4.226 4.001V4.279H22.942zm16.72 15.534L27.666 8.456h11.997v11.357zm-3.725 5.058H22.569v-13.07h.945v12.185h12.424v.885zm-10.212 5.43-.494 1.017-.494-1.017h-.414l.721 1.356v.79h.374v-.79l.719-1.356h-.413zm.621 2.146.174-.5h.831l.175.5h.389l-.812-2.146h-.335l-.811 2.146h.388zm.589-1.69.311.89h-.622l.311-.89zm1.967.838a.488.488 0 0 0-.081.273c0 .181.063.328.19.441.128.112.298.168.51.168s.395-.057.548-.172l.121.143h.416l-.315-.373c.124-.169.186-.386.186-.65h-.311c0 .144-.03.276-.09.394l-.414-.489.146-.106c.103-.075.177-.149.223-.224s.068-.158.068-.248a.44.44 0 0 0-.15-.34.541.541 0 0 0-.383-.139c-.173 0-.311.049-.413.147s-.153.23-.153.398c0 .069.016.14.049.214s.092.163.175.268a1.277 1.277 0 0 0-.32.296zm.968.475a.544.544 0 0 1-.339.121c-.107 0-.193-.031-.256-.093s-.096-.142-.096-.242c0-.115.059-.217.177-.307l.046-.032.469.553zm-.385-.951c-.101-.125-.152-.228-.152-.311 0-.072.021-.131.062-.178s.097-.071.167-.071c.065 0 .118.02.161.06s.063.087.063.143c0 .084-.03.154-.091.208l-.046.037-.164.112zm3.494 1.166a.783.783 0 0 0 .254-.537h-.371c-.02.153-.066.263-.14.329s-.184.099-.33.099c-.16 0-.282-.061-.366-.183s-.124-.299-.124-.531v-.19c.002-.229.046-.402.133-.52a.435.435 0 0 1 .374-.178c.14 0 .245.034.317.103.073.068.118.179.136.333h.371c-.024-.235-.108-.417-.252-.545s-.335-.193-.572-.193a.871.871 0 0 0-.466.125c-.134.084-.236.202-.308.357s-.108.333-.108.535v.201c.003.198.04.371.111.52s.171.265.301.346a.843.843 0 0 0 .453.121c.245 0 .441-.064.588-.192zm2.192-.301c.073-.159.109-.344.109-.554v-.119c-.001-.209-.038-.393-.112-.55a.829.829 0 0 0-.778-.49.86.86 0 0 0-.466.128c-.135.084-.239.207-.314.367s-.111.345-.111.554v.121c.001.205.038.387.112.544s.18.279.315.364a.873.873 0 0 0 .466.127.855.855 0 0 0 .466-.127.828.828 0 0 0 .313-.366zm-.4-1.213c.09.127.136.309.136.547v.112c0 .242-.045.426-.134.551s-.215.189-.38.189c-.163 0-.291-.064-.383-.193s-.137-.311-.137-.547v-.124c.002-.231.048-.409.139-.535a.44.44 0 0 1 .379-.19.44.44 0 0 1 .382.19z"/>
      </symbol>
      <symbol id="icon-linkedin" viewBox="0 0 32 32">
        <path d="M31.992 32v-.001H32V20.263c0-5.741-1.236-10.164-7.948-10.164-3.227 0-5.392 1.771-6.276 3.449h-.093v-2.913h-6.364v21.364h6.627V21.42c0-2.785.528-5.479 3.977-5.479 3.399 0 3.449 3.179 3.449 5.657v10.401h6.62zM.528 10.636h6.635V32H.528V10.636zM3.843 0C1.722 0 0 1.721 0 3.843s1.721 3.879 3.843 3.879c2.121 0 3.843-1.757 3.843-3.879A3.846 3.846 0 0 0 3.843 0z"/>
      </symbol>
      <symbol id="icon-facebook" viewBox="0 0 32 32">
        <path d="M21.329 5.313h2.921V.225C23.746.156 22.013 0 19.994 0c-4.212 0-7.097 2.649-7.097 7.519V12H8.249v5.688h4.648V32h5.699V17.689h4.46l.708-5.688h-5.169V8.082c.001-1.644.444-2.769 2.735-2.769z"/>
      </symbol>
      <symbol id="icon-twitter" viewBox="0 0 32 32">
        <path d="M32 6.078c-1.19.522-2.458.868-3.78 1.036a6.523 6.523 0 0 0 2.886-3.626 13.11 13.11 0 0 1-4.16 1.588A6.574 6.574 0 0 0 22.154 3c-3.632 0-6.556 2.948-6.556 6.562 0 .52.044 1.02.152 1.496-5.454-.266-10.28-2.88-13.522-6.862a6.605 6.605 0 0 0-.898 3.316 6.57 6.57 0 0 0 2.914 5.452 6.479 6.479 0 0 1-2.964-.808v.072c0 3.188 2.274 5.836 5.256 6.446a6.548 6.548 0 0 1-1.72.216 5.8 5.8 0 0 1-1.242-.112c.85 2.598 3.262 4.508 6.13 4.57a13.182 13.182 0 0 1-8.134 2.798c-.538 0-1.054-.024-1.57-.09A18.469 18.469 0 0 0 10.064 29c12.072 0 18.672-10 18.672-18.668 0-.29-.01-.57-.024-.848A13.087 13.087 0 0 0 32 6.078z"/>
      </symbol>
      <symbol id="icon-instagram" viewBox="0 0 32 32">
        <path d="M31.969 9.408c-.075-1.7-.35-2.869-.744-3.882a7.806 7.806 0 0 0-1.851-2.838A7.867 7.867 0 0 0 26.542.844C25.523.45 24.36.175 22.66.1 20.947.019 20.403 0 16.059 0s-4.888.019-6.595.094c-1.7.075-2.869.35-3.882.744a7.803 7.803 0 0 0-2.838 1.85A7.867 7.867 0 0 0 .9 5.52C.506 6.539.231 7.702.156 9.402c-.081 1.713-.1 2.257-.1 6.601s.019 4.888.094 6.595c.075 1.7.35 2.869.744 3.882a7.895 7.895 0 0 0 1.85 2.838 7.867 7.867 0 0 0 2.832 1.844c1.019.394 2.182.669 3.882.744 1.706.075 2.25.094 6.595.094s4.888-.019 6.595-.094c1.7-.075 2.869-.35 3.882-.744a8.184 8.184 0 0 0 4.682-4.682c.394-1.019.669-2.182.744-3.882.075-1.707.094-2.251.094-6.595s-.006-4.888-.081-6.595zm-2.882 13.065c-.069 1.563-.331 2.407-.55 2.969a5.31 5.31 0 0 1-3.038 3.038c-.563.219-1.413.481-2.969.55-1.688.075-2.194.094-6.464.094s-4.782-.019-6.464-.094c-1.563-.069-2.407-.331-2.969-.55a4.926 4.926 0 0 1-1.838-1.194 4.974 4.974 0 0 1-1.194-1.838c-.219-.563-.481-1.413-.55-2.969-.075-1.688-.094-2.194-.094-6.464s.019-4.782.094-6.464c.069-1.563.331-2.407.55-2.969a4.868 4.868 0 0 1 1.2-1.838A4.974 4.974 0 0 1 6.639 3.55c.563-.219 1.413-.481 2.969-.55 1.688-.075 2.194-.094 6.464-.094 4.276 0 4.782.019 6.464.094 1.563.069 2.407.331 2.969.55a4.914 4.914 0 0 1 1.838 1.194 4.974 4.974 0 0 1 1.194 1.838c.219.563.481 1.413.55 2.969.075 1.688.094 2.194.094 6.464s-.019 4.77-.094 6.458z"/>
        <path d="M16.059 7.783c-4.538 0-8.22 3.682-8.22 8.22s3.682 8.22 8.22 8.22 8.22-3.682 8.22-8.22-3.682-8.22-8.22-8.22zm0 13.552a5.333 5.333 0 0 1 0-10.664 5.333 5.333 0 0 1 0 10.664zM26.524 7.458a1.919 1.919 0 1 1-3.838 0 1.919 1.919 0 0 1 3.838 0z"/>
      </symbol>
      <symbol id="icon-sobre" viewBox="0 0 43 32">
        <path d="M38.667 0H4C1.794 0 0 1.794 0 4v24c0 2.206 1.794 4 4 4h34.667c2.206 0 4-1.794 4-4V4c0-2.206-1.794-4-4-4zm0 2.667c.181 0 .353.038.511.103L21.334 18.236 3.49 2.77a1.32 1.32 0 0 1 .511-.103h34.667zm0 26.666H4A1.334 1.334 0 0 1 2.667 28V5.587L20.46 21.008a1.335 1.335 0 0 0 1.748 0L40.001 5.587V28c0 .736-.598 1.333-1.333 1.333z"/>
      </symbol>
      <symbol id="icon-telfono-inteligente" viewBox="0 0 20 32">
        <path d="M17 0H3C1.346 0 0 1.346 0 3v26c0 1.654 1.346 3 3 3h14c1.654 0 3-1.346 3-3V3c0-1.654-1.346-3-3-3zM3 2h14a1 1 0 0 1 1 1v21H2V3a1 1 0 0 1 1-1zm14 28H3a1 1 0 0 1-1-1v-3h16v3a1 1 0 0 1-1 1z"/>
        <path d="M4.707 27.478c.391.365.391.956 0 1.321s-1.024.365-1.414 0c-.391-.365-.391-.956 0-1.321s1.024-.365 1.414 0z"/>
      </symbol>
      
      <svg aria-hidden="true" style="position: absolute; width: 0; height: 0; overflow: hidden;" version="1.1" xmlns="http://www.w3.org/2000/svg" xmlns:xlink="http://www.w3.org/1999/xlink">
      <defs>
      <symbol id="icon-astronauta-1" viewBox="0 0 32 32">
      <path fill="#2196f3" style="fill: var(--color1, #2196f3)" d="M31.974 4.524c-0.063-0.193-0.229-0.333-0.43-0.363l-1.91-0.278-0.855-1.731c-0.179-0.365-0.777-0.365-0.956 0l-0.855 1.731-1.91 0.278c-0.201 0.029-0.367 0.17-0.431 0.363-0.062 0.193-0.011 0.405 0.135 0.547l1.383 1.348-0.326 1.903c-0.034 0.2 0.048 0.402 0.212 0.522 0.166 0.121 0.382 0.135 0.562 0.040l1.709-0.899 1.709 0.899c0.078 0.041 0.164 0.061 0.249 0.061 0.11 0 0.221-0.034 0.314-0.102 0.164-0.119 0.246-0.322 0.212-0.522l-0.326-1.903 1.383-1.348c0.145-0.142 0.197-0.354 0.135-0.547zM29.511 5.851c-0.125 0.122-0.183 0.299-0.153 0.472l0.191 1.114-1-0.526c-0.078-0.041-0.163-0.061-0.249-0.061s-0.17 0.020-0.249 0.061l-1.001 0.526 0.191-1.114c0.030-0.173-0.028-0.349-0.153-0.472l-0.81-0.789 1.119-0.163c0.174-0.025 0.324-0.134 0.402-0.292l0.5-1.013 0.5 1.013c0.078 0.157 0.228 0.267 0.402 0.292l1.119 0.163-0.809 0.789z"></path>
      <path fill="#2196f3" style="fill: var(--color1, #2196f3)" d="M26.134 20.522h-1.067v1.067h1.067v-1.067z"></path>
      <path fill="#2196f3" style="fill: var(--color1, #2196f3)" d="M26.134 22.656h-1.067v1.067h1.067v-1.067z"></path>
      <path fill="#2196f3" style="fill: var(--color1, #2196f3)" d="M27.2 21.589h-1.067v1.067h1.067v-1.067z"></path>
      <path fill="#2196f3" style="fill: var(--color1, #2196f3)" d="M25.067 21.589h-1.067v1.067h1.067v-1.067z"></path>
      <path fill="#2196f3" style="fill: var(--color1, #2196f3)" d="M22.4 26.389h-1.067v1.067h1.067v-1.067z"></path>
      <path fill="#2196f3" style="fill: var(--color1, #2196f3)" d="M22.4 28.522h-1.067v1.067h1.067v-1.067z"></path>
      <path fill="#2196f3" style="fill: var(--color1, #2196f3)" d="M23.467 27.456h-1.067v1.067h1.067v-1.067z"></path>
      <path fill="#2196f3" style="fill: var(--color1, #2196f3)" d="M21.333 27.456h-1.067v1.067h1.067v-1.067z"></path>
      <path fill="#2196f3" style="fill: var(--color1, #2196f3)" d="M16 24.256h-1.067v1.067h1.067v-1.067z"></path>
      <path fill="#2196f3" style="fill: var(--color1, #2196f3)" d="M16 26.389h-1.067v1.067h1.067v-1.067z"></path>
      <path fill="#2196f3" style="fill: var(--color1, #2196f3)" d="M17.067 25.322h-1.067v1.067h1.067v-1.067z"></path>
      <path fill="#2196f3" style="fill: var(--color1, #2196f3)" d="M14.933 25.322h-1.067v1.067h1.067v-1.067z"></path>
      <path fill="#2196f3" style="fill: var(--color1, #2196f3)" d="M5.867 6.122h-1.067v1.067h1.067v-1.067z"></path>
      <path fill="#2196f3" style="fill: var(--color1, #2196f3)" d="M5.867 8.255h-1.067v1.067h1.067v-1.067z"></path>
      <path fill="#2196f3" style="fill: var(--color1, #2196f3)" d="M6.933 7.189h-1.067v1.067h1.067v-1.067z"></path>
      <path fill="#2196f3" style="fill: var(--color1, #2196f3)" d="M4.8 7.189h-1.067v1.067h1.067v-1.067z"></path>
      <path fill="#212121" style="fill: var(--color2, #212121)" d="M24.715 14.159c-0.287-0.388-0.709-0.637-1.188-0.705-0.481-0.068-0.956 0.058-1.34 0.352l-1.252 0.96-1.898 1.417-1.358-0.541c2.421-1.086 4.114-3.508 4.114-6.32 0-3.823-3.123-6.933-6.961-6.933s-6.961 3.11-6.961 6.933c0 1.386 0.414 2.674 1.12 3.758l-2.764-0.024c-0.002 0-0.003 0-0.005 0-0.009 0-0.015 0.004-0.023 0.005-0.053 0.002-0.105 0.013-0.155 0.031-0.013 0.005-0.026 0.008-0.038 0.013-0.006 0.003-0.013 0.003-0.019 0.006l-3.233 1.596c-0.001 0-0.001 0-0.001 0.001l-1.893 0.911c-0.021 0.009-0.042 0.021-0.063 0.035-0.755 0.502-1.012 1.489-0.598 2.295 0.22 0.429 0.595 0.745 1.056 0.889 0.178 0.055 0.359 0.083 0.539 0.083 0.29 0 0.577-0.071 0.839-0.211l1.388-0.738 2.264-1.169 1.357-0.008-5.442 5.416c-0.001 0.001-0.001 0.001-0.002 0.001l-1.339 1.333c-0.316 0.315-0.49 0.732-0.49 1.178s0.174 0.863 0.49 1.179c0.325 0.323 0.752 0.485 1.179 0.485s0.854-0.162 1.18-0.485l1.314-1.309 1.741-1.3 0.901 0.897-1.762 1.754c-0 0.001-0.001 0.001-0.002 0.001l-1.339 1.333c-0.316 0.315-0.49 0.732-0.49 1.178s0.174 0.863 0.49 1.179c0.325 0.323 0.753 0.485 1.18 0.485s0.855-0.162 1.18-0.485l3.482-3.467c0.001-0.001 0.001-0.001 0.001-0.002l1.010-1-0.004-0.004c0.006-0.006 0.015-0.009 0.022-0.015l5.166-5.658 3.471 0.494c0.025 0.004 0.050 0.005 0.075 0.005 0.065 0 0.127-0.015 0.187-0.038 0.018-0.006 0.033-0.015 0.050-0.023 0.019-0.010 0.039-0.015 0.058-0.027l3.213-2.133c0.012-0.008 0.018-0.021 0.029-0.029 0.013-0.010 0.029-0.014 0.041-0.026l1.271-1.191c0.662-0.62 0.753-1.635 0.212-2.362zM2.13 17.77c-0.173 0.093-0.37 0.111-0.558 0.052-0.187-0.058-0.338-0.186-0.427-0.358-0.161-0.314-0.068-0.695 0.214-0.902l1.314-0.632 0.449 1.312-0.992 0.528zM5.628 15.942l-1.548 0.8-0.439-1.283 2.027-1.001-0.040 1.484zM20.727 9.322c0 0.918-0.219 1.785-0.599 2.559l-4.181-1.899c-0.044-0.573-0.341-1.075-0.788-1.388l1.464-4.86c2.378 0.756 4.105 2.974 4.105 5.588zM8.938 9.322c0-3.235 2.644-5.867 5.894-5.867 0.253 0 0.5 0.021 0.745 0.052l-1.432 4.754c-0.019-0.001-0.037-0.006-0.057-0.006-1.033 0-1.873 0.837-1.873 1.867s0.84 1.867 1.873 1.867c0.694 0 1.294-0.383 1.618-0.945l3.862 1.755c-1.075 1.446-2.795 2.39-4.737 2.39-3.25 0-5.894-2.632-5.894-5.867zM14.894 10.122c0 0.441-0.362 0.8-0.806 0.8s-0.806-0.359-0.806-0.8c0-0.441 0.362-0.8 0.806-0.8s0.806 0.359 0.806 0.8zM2.465 25.146c-0.236 0.234-0.619 0.234-0.854 0.001-0.114-0.114-0.176-0.263-0.176-0.423s0.062-0.309 0.176-0.421l0.962-0.958 0.851 0.848-0.959 0.955zM5.679 28.88c-0.236 0.234-0.619 0.235-0.855 0.001-0.114-0.114-0.176-0.263-0.176-0.423s0.062-0.309 0.176-0.421l0.963-0.959 0.852 0.848-0.96 0.955zM9.16 25.411c-0.001 0-0.001 0-0.002 0.001l-1.765 1.76-0.852-0.848 1.763-1.755c0 0 0 0 0-0s0.001-0.001 0.002-0.001c0.040-0.040 0.065-0.088 0.090-0.135 0.007-0.014 0.020-0.026 0.026-0.040 0.017-0.041 0.019-0.085 0.026-0.129 0.003-0.025 0.014-0.047 0.014-0.073 0-0.036-0.013-0.070-0.020-0.106-0.006-0.032-0.006-0.065-0.019-0.095-0.020-0.050-0.055-0.094-0.091-0.138-0.010-0.012-0.014-0.027-0.025-0.038 0 0 0 0-0.001 0s-0.001-0.002-0.001-0.002l-1.607-1.6c-0.017-0.017-0.039-0.024-0.058-0.038-0.028-0.022-0.055-0.042-0.087-0.058-0.030-0.015-0.061-0.024-0.093-0.033-0.034-0.010-0.067-0.017-0.103-0.020-0.033-0.002-0.063 0.001-0.095 0.005-0.036 0.004-0.069 0.009-0.104 0.020-0.034 0.011-0.063 0.027-0.094 0.045-0.020 0.011-0.042 0.015-0.061 0.029l-1.773 1.324-0.901-0.897 2.399-2.386 4.361 4.289-0.928 0.919zM15.979 18.394c-0.015-0.002-0.030 0.004-0.045 0.003-0.039-0.002-0.076 0.001-0.115 0.007-0.030 0.005-0.059 0.011-0.088 0.021-0.034 0.012-0.065 0.028-0.097 0.047-0.030 0.018-0.057 0.037-0.083 0.061-0.013 0.011-0.028 0.017-0.040 0.029l-4.698 5.146-4.328-4.257 2.833-2.818c0.209-0.208 0.21-0.546 0.002-0.755-0.105-0.105-0.243-0.157-0.381-0.156v-0.001l-2.219 0.013 0.028-1.607 3.104 0.027c1.265 1.294 3.029 2.101 4.981 2.101 0.437 0 0.864-0.045 1.279-0.123 0.040 0.032 0.079 0.065 0.13 0.085l2.41 0.96 0.152 0.758 0.178 0.885-3.003-0.427zM20.020 18.572l-0.313-1.558 1.446-1.080 0.947 1.257-2.080 1.381zM23.774 15.741l-0.838 0.785-0.931-1.236 0.831-0.637c0.155-0.119 0.351-0.168 0.543-0.143 0.193 0.027 0.364 0.128 0.48 0.284 0.217 0.292 0.18 0.699-0.085 0.947z"></path>
      <path fill="#212121" style="fill: var(--color2, #212121)" d="M13.602 18.544l-2.143-2.133c-0.207-0.207-0.545-0.207-0.753 0l-2.142 2.133c-0.1 0.101-0.157 0.236-0.157 0.378s0.056 0.278 0.157 0.378l2.142 2.133c0.104 0.103 0.241 0.155 0.377 0.155s0.273-0.052 0.376-0.155l2.143-2.133c0.1-0.1 0.157-0.236 0.157-0.378s-0.057-0.278-0.157-0.378zM11.083 20.303l-1.387-1.381 1.387-1.381 1.387 1.381-1.387 1.381z"></path>
      <path fill="#212121" style="fill: var(--color2, #212121)" d="M17.164 5.071l-0.258 1.036c0.071 0.018 1.738 0.452 1.738 2.149h1.067c-0-2.017-1.666-2.965-2.547-3.185z"></path>
      <path fill="#212121" style="fill: var(--color2, #212121)" d="M19.711 9.322h-1.067v1.067h1.067v-1.067z"></path>
      </symbol>
      <symbol id="icon-diagrama-1" viewBox="0 0 32 32">
      <path fill="#2196f3" style="fill: var(--color1, #2196f3)" d="M14.926 14.965h1.066v4.798h-1.066v-4.797z"></path>
      <path fill="#2196f3" style="fill: var(--color1, #2196f3)" d="M19.19 17.097h1.066v2.665h-1.066v-2.665z"></path>
      <path fill="#2196f3" style="fill: var(--color1, #2196f3)" d="M10.661 18.696h1.066v1.066h-1.066v-1.066z"></path>
      <path fill="#2196f3" style="fill: var(--color1, #2196f3)" d="M7.463 18.163h1.066v1.599h-1.066v-1.599z"></path>
      <path fill="#212121" style="fill: var(--color2, #212121)" d="M1.599 28.291h25.587c0.883 0 1.599-0.716 1.599-1.599v-2.132c0-0.883-0.716-1.599-1.599-1.599h-0.533v-13.293l3.028-2.868c0.703 0.346 1.553 0.136 2.013-0.499s0.396-1.508-0.152-2.068-1.42-0.644-2.065-0.198c-0.644 0.446-0.873 1.292-0.542 2.002l-2.281 2.163v-1.23c0-0.883-0.716-1.599-1.599-1.599h-21.322c-0.883 0-1.599 0.716-1.599 1.599v15.992h-0.533c-0.883 0-1.599 0.716-1.599 1.599v2.132c0 0.883 0.716 1.599 1.599 1.599zM30.384 4.837c0.294 0 0.533 0.239 0.533 0.533s-0.239 0.533-0.533 0.533c-0.294 0-0.533-0.239-0.533-0.533s0.239-0.533 0.533-0.533zM3.198 6.969c0-0.294 0.239-0.533 0.533-0.533h21.322c0.294 0 0.533 0.239 0.533 0.533v2.239l-1.066 1.013v-2.186c0-0.294-0.239-0.533-0.533-0.533h-19.19c-0.294 0-0.533 0.239-0.533 0.533v13.326c0 0.294 0.239 0.533 0.533 0.533h19.19c0.294 0 0.533-0.239 0.533-0.533v-9.674l1.066-1.010v12.284h-22.388v-15.992zM7.996 13.899c-0.721-0.002-1.354 0.478-1.546 1.174s0.105 1.433 0.725 1.801c0.62 0.368 1.41 0.276 1.928-0.226l1.853 0.93c0.215 0.108 0.476 0.057 0.636-0.123l3.939-4.431 3.872 2.901c0.208 0.156 0.498 0.139 0.686-0.039l3.365-3.188v8.131h-18.124v-12.26h18.124v2.66l-3.771 3.572-3.904-2.927c-0.222-0.166-0.534-0.135-0.718 0.072l-3.993 4.493-1.493-0.746c0.011-0.064 0.018-0.129 0.020-0.193 0-0.883-0.716-1.599-1.599-1.599zM8.529 15.498c0 0.294-0.239 0.533-0.533 0.533s-0.533-0.239-0.533-0.533c0-0.294 0.239-0.533 0.533-0.533s0.533 0.239 0.533 0.533zM11.727 24.027h5.331v0.533c0 0.294-0.239 0.533-0.533 0.533h-4.264c-0.294 0-0.533-0.239-0.533-0.533v-0.533zM1.066 24.56c0-0.294 0.239-0.533 0.533-0.533h9.062v0.533c0 0.883 0.716 1.599 1.599 1.599h4.264c0.883 0 1.599-0.716 1.599-1.599v-0.533h9.062c0.294 0 0.533 0.239 0.533 0.533v2.132c0 0.294-0.239 0.533-0.533 0.533h-25.587c-0.294 0-0.533-0.239-0.533-0.533v-2.132z"></path>
      </symbol>
      <symbol id="icon-reloj-1" viewBox="0 0 31 32">
      <path fill="#212121" style="fill: var(--color2, #212121)" d="M29.317 13.732c-0.002-7.585-6.152-13.733-13.738-13.732s-13.733 6.152-13.732 13.738c0.001 5.975 3.865 11.264 9.557 13.081 0.054 0.017 0.111 0.026 0.168 0.026 0.108-0 0.214-0.029 0.307-0.084 0.121-0.072 0.212-0.186 0.254-0.32l3.469-10.994c0.948-0.005 1.713-0.778 1.708-1.726s-0.777-1.713-1.726-1.708c-0.255 0.001-0.507 0.060-0.736 0.172l-4.582-4.583c-0.227-0.22-0.59-0.213-0.809 0.014-0.214 0.222-0.214 0.573 0 0.795l4.58 4.585c-0.351 0.717-0.151 1.583 0.481 2.072l-3.305 10.476c-6.531-2.406-9.876-9.651-7.47-16.182s9.651-9.876 16.182-7.47 9.876 9.651 7.47 16.182c-1.175 3.191-3.591 5.772-6.697 7.156l-0.357-1.682c-0.065-0.309-0.369-0.507-0.678-0.441-0.098 0.021-0.188 0.067-0.262 0.133l-3.443 3.074c-0.236 0.21-0.257 0.572-0.047 0.808 0.068 0.077 0.156 0.134 0.254 0.165l4.396 1.403c0.301 0.097 0.623-0.069 0.72-0.37 0.031-0.095 0.036-0.196 0.015-0.294l-0.351-1.65c5.083-2.143 8.384-7.128 8.372-12.644zM15.583 13.16c0.316 0 0.572 0.256 0.572 0.572s-0.256 0.572-0.572 0.572c-0.316 0-0.572-0.256-0.572-0.572s0.256-0.572 0.572-0.572zM17.468 26.499l1.96-1.748 0.541 2.549-2.501-0.801z"></path>
      <path fill="#2196f3" style="fill: var(--color1, #2196f3)" d="M15.010 2.858v1.145c0 0.316 0.256 0.572 0.572 0.572s0.572-0.256 0.572-0.572v-1.145c0-0.316-0.256-0.572-0.572-0.572s-0.572 0.256-0.572 0.572z"></path>
      <path fill="#2196f3" style="fill: var(--color1, #2196f3)" d="M4.709 13.16c-0.316 0-0.572 0.256-0.572 0.572s0.256 0.572 0.572 0.572h1.145c0.316 0 0.572-0.256 0.572-0.572s-0.256-0.572-0.572-0.572h-1.145z"></path>
      <path fill="#2196f3" style="fill: var(--color1, #2196f3)" d="M26.456 14.304c0.316 0 0.572-0.256 0.572-0.572s-0.256-0.572-0.572-0.572h-1.145c-0.316 0-0.572 0.256-0.572 0.572s0.256 0.572 0.572 0.572h1.145z"></path>
      </symbol>
      <symbol id="icon-antena-1" viewBox="0 0 32 32">
      <path fill="#212121" style="fill: var(--color2, #212121)" d="M30.773 22.098l-8.443-8.505 0.937-4.615c0.242 0.094 0.499 0.144 0.758 0.146h0.006c1.192 0.014 2.17-0.941 2.184-2.133s-0.941-2.17-2.133-2.184c-1.192-0.014-2.17 0.941-2.184 2.133-0.003 0.255 0.039 0.509 0.125 0.749l-4.96 0.605-8.091-8.133c-0.099-0.101-0.235-0.159-0.377-0.16-0.14 0.001-0.274 0.056-0.373 0.155l-1.513 1.504c-0.208 0.208-0.208 0.546 0 0.754l0.814 0.826c-3.153 5.798-2.129 12.978 2.519 17.663 0.043 0.041 0.092 0.074 0.146 0.098-0.034 0.18-0.051 0.364-0.052 0.547v6.187h-6.4c-1.472 0.002-2.665 1.195-2.667 2.667v1.067c0 0.295 0.239 0.533 0.533 0.533h24.533c0.295 0 0.533-0.239 0.533-0.533v-1.067c-0.002-1.472-1.195-2.665-2.667-2.667h-6.4v-2.742c1.003 0.21 2.024 0.317 3.049 0.32 2.458-0.003 4.877-0.615 7.040-1.783l0.818 0.823c0.099 0.101 0.235 0.159 0.377 0.16 0.14-0.001 0.274-0.056 0.373-0.155l1.513-1.504c0.208-0.208 0.208-0.546 0-0.754zM23.28 6.233c0.418-0.415 1.093-0.414 1.508 0.004s0.414 1.093-0.004 1.508c-0.2 0.199-0.47 0.31-0.752 0.31h-0.003c-0.589-0.003-1.064-0.483-1.061-1.072 0.002-0.282 0.115-0.552 0.314-0.751h-0.002zM22.024 9.738l-0.598 2.946-1.175-1.182 1.774-1.763zM21.419 8.836l-1.92 1.909-1.485-1.493 3.405-0.415zM24.004 28.8c0.884 0 1.6 0.716 1.6 1.6v0.533h-23.467v-0.533c0-0.884 0.716-1.6 1.6-1.6h20.267zM16.537 26.667v1.067h-5.333v-1.067h5.333zM11.204 25.6v-4.053c0-1.294 1.196-2.347 2.667-2.347s2.667 1.053 2.667 2.347v4.053h-5.333zM17.604 23.904v-2.357c0-1.882-1.675-3.413-3.733-3.413-1.331-0.020-2.576 0.657-3.281 1.786-4.058-4.274-4.971-10.645-2.279-15.887l18.602 18.708c-2.872 1.461-6.165 1.873-9.309 1.163zM28.893 23.22l-21.057-21.181 0.755-0.752 7.935 7.98c0.004 0 0.006 0.007 0.010 0.010l13.115 13.191-0.757 0.752z"></path>
      <path fill="#2196f3" style="fill: var(--color1, #2196f3)" d="M13.876 20.267h-0.005c-0.884-0.001-1.601 0.714-1.602 1.598s0.714 1.601 1.598 1.602h0.005c0.884 0.001 1.601-0.714 1.602-1.598s-0.714-1.601-1.598-1.602zM14.249 22.245c-0.1 0.1-0.236 0.156-0.378 0.155-0.295-0.002-0.532-0.242-0.531-0.536 0.001-0.141 0.057-0.276 0.157-0.375s0.233-0.154 0.373-0.155c0.295 0.002 0.532 0.241 0.53 0.536-0.001 0.141-0.057 0.276-0.157 0.375h0.005z"></path>
      </symbol>
      </defs>
      <symbol id="enviar-icon" viewBox="0 0 32 32">
          <path d="M32 0 0 18l10.227 3.788L26 7 14.002 23.186l.01.004-.012-.004V32l5.735-6.691L27 28l5-28z"/>
        </symbol>

        <symbol id="icon-revisado" viewBox="0 0 42 32">
          <path fill="#fff" style="fill: var(--color1, #fff); stroke: var(--color1, #fff)" stroke="#fff" stroke-linejoin="miter" stroke-linecap="butt" stroke-miterlimit="4" stroke-width="0.64" d="M6.263 15.205l-0.22-0.21-3.307 3.132 11.651 11.114 24.477-23.351-3.285-3.134-21.192 20.197-8.124-7.75z"></path>
        </symbol>

          <symbol id="icon-cerrar" viewBox="0 0 32 32">
      <path d="m26.667 7.303-1.97-1.97-7.808 7.808-7.808-7.808-1.97 1.97 7.808 7.808-7.808 7.808 1.97 1.97 7.808-7.808 7.808 7.808 1.97-1.97-7.808-7.808 7.808-7.808z"/>
          </symbol>
      </svg>
      
    
      <svg xmlns="http://www.w3.org/2000/svg" aria-hidden="true" style="position:absolute;width:0;height:0;overflow:hidden">
    <defs>
      <symbol id="email-address" viewBox="0 0 32 32">
        <path d="M26.667 5.333H5.334A2.663 2.663 0 0 0 2.681 8l-.013 16c0 1.467 1.2 2.667 2.667 2.667h21.333c1.467 0 2.667-1.2 2.667-2.667V8c0-1.467-1.2-2.667-2.667-2.667zM26.133 11l-9.427 5.893a1.346 1.346 0 0 1-1.413 0L5.866 11a1.132 1.132 0 1 1 1.2-1.92l8.933 5.587 8.933-5.587a1.132 1.132 0 1 1 1.2 1.92z"/>
      </symbol>
      <symbol id="icon-man" viewBox="0 0 32 32">
        <path d="M16 16c2.947 0 5.333-2.387 5.333-5.333S18.946 5.334 16 5.334c-2.947 0-5.333 2.387-5.333 5.333S13.054 16 16 16zm0 2.667c-3.56 0-10.667 1.787-10.667 5.333v1.333c0 .733.6 1.333 1.333 1.333h18.667c.733 0 1.333-.6 1.333-1.333V24c0-3.547-7.107-5.333-10.667-5.333z"/>
      </symbol>
      <symbol id="icon-tel" viewBox="0 0 32 32">
        <path d="m24.882 19.773-3.268-.373a2.561 2.561 0 0 0-2.11.733L17.137 22.5a19.357 19.357 0 0 1-8.478-8.478l2.38-2.38a2.561 2.561 0 0 0 .733-2.11l-.373-3.242a2.575 2.575 0 0 0-2.56-2.277H6.613c-1.454 0-2.663 1.209-2.573 2.663.682 10.987 9.469 19.761 20.443 20.443 1.454.09 2.663-1.119 2.663-2.573V22.32a2.55 2.55 0 0 0-2.264-2.547z"/>
      </symbol>
    </defs>
  </svg>

  </defs>
</svg>
